<svg width="694" height="348.99999999999994" xmlns="http://www.w3.org/2000/svg">

 <g id="imagebot_2">
  <rect transform="translate(0 -0.150024) matrix(1 0 0 1 -7 -268.36)" fill="#d2d2d2" x="73.857" y="289.51" width="605.14" height="328.14" id="imagebot_12"/>
  <rect transform="translate(0 -0.150024) matrix(1 0 0 1 -7 -268.36)" stroke="#000000" stroke-width="2" fill="#ffffff" x="94.857" y="269.51" width="605.14" height="328.14" id="imagebot_11"/>
  <path transform="translate(0 -0.150024) matrix(1 0 0 1 -7 -268.36)" stroke="#000000" stroke-width="2" fill="none" d="M8,296.36L85,296.36" id="imagebot_9"/>
  <path transform="translate(0 -0.150024) matrix(1 0 0 1 -7 -268.36)" stroke="#000000" stroke-width="2" fill="none" d="M8,388.36L85,388.36" id="imagebot_8"/>
  <path transform="translate(0 -0.150024) matrix(1 0 0 1 -7 -268.36)" stroke="#000000" stroke-width="2" fill="none" d="M8,510.36L85,510.36" id="imagebot_7"/>
  <path transform="translate(0 -0.150024) matrix(1 0 0 1 -7 -268.36)" stroke="#000000" stroke-width="2" fill="none" d="M8,568.36L85,568.36" id="imagebot_6"/>
  <path transform="translate(0 -0.150024) matrix(1 0 0 1 -7 -268.36)" stroke="#000000" stroke-width="1.559" fill="none" d="M38.608,538.36L85.392,538.36" id="imagebot_5"/>
  <path transform="translate(0 -0.150024) matrix(1 0 0 1 -7 -268.36)" stroke="#000000" stroke-width="1.559" fill="none" d="M38.608,452.36L85.392,452.36" id="imagebot_4"/>
  <path transform="translate(0 -0.150024) matrix(1 0 0 1 -7 -268.36)" stroke="#000000" stroke-width="1.559" fill="none" d="M38.608,356.36L85.392,356.36" id="imagebot_3"/>
  <title>imagebot_2</title>
  <path transform="translate(0 -0.150024) matrix(0.387778 0 0 0.387778 558.75 13.75)" d="M 80.60777271646612 223.04537878109818 L 80.60777271646612 -0.9796203605949501 L 304.63277185815923 -0.9796203605949501 L 304.63277185815923 223.04537878109818 L 80.60777271646612 223.04537878109818 z" id="imagebot_13" stroke-opacity="null" stroke-linecap="null" stroke-linejoin="null" stroke-dasharray="null" stroke-width="3" stroke="#000000" fill="#0000ff"/>
  <line transform="rotate(0.352312 340.75 150.365) matrix(1 0 0 2.65413 0 -239.793)" id="imagebot_14" y2="146.37499" x2="470.12499" y1="147.62499" x1="211.375" stroke-linecap="null" stroke-linejoin="null" stroke-dasharray="null" stroke-width="3" stroke="#999999" fill="none"/>
  <line transform="translate(0 -0.150024) matrix(1 0 0 1.6015 0 -113.459)" id="imagebot_15" y2="190.12499" x2="463.87499" y1="191.37499" x1="211.375" fill-opacity="null" stroke-linecap="null" stroke-linejoin="null" stroke-dasharray="null" stroke-width="3" stroke="#999999" fill="none"/>
 </g>
 <metadata>image/svg+xmlOpenclipartSpeeding Envelope2010-07-29T04:57:31Simple envelope with drop shadow and "speed" lineshttps://openclipart.org/detail/75181/speeding-envelope-by-jppi_stujppi_Stucommunicatecommunicationenvelopefastlettermessagequickspeed</metadata>
</svg>