<?xml version="1.0" encoding="UTF-8" standalone="no"?>
<!-- Created with Inkscape (http://www.inkscape.org/) -->

<svg
   version="1.1"
   id="svg69058"
   width="800"
   height="800"
   viewBox="0 0 800 800"
   sodipodi:docname="wings-clip-art-5-publicdomainvectors.org.svg"
   inkscape:version="1.2 (dc2aedaf03, 2022-05-15)"
   xmlns:inkscape="http://www.inkscape.org/namespaces/inkscape"
   xmlns:sodipodi="http://sodipodi.sourceforge.net/DTD/sodipodi-0.dtd"
   xmlns="http://www.w3.org/2000/svg"
   xmlns:svg="http://www.w3.org/2000/svg">
  <defs
     id="defs69062">
    <clipPath
       clipPathUnits="userSpaceOnUse"
       id="clipPath69074">
      <path
         d="M 0,600 H 600 V 0 H 0 Z"
         id="path69072" />
    </clipPath>
  </defs>
  <sodipodi:namedview
     id="namedview69060"
     pagecolor="#ffffff"
     bordercolor="#000000"
     borderopacity="0.25"
     inkscape:showpageshadow="2"
     inkscape:pageopacity="0.0"
     inkscape:pagecheckerboard="0"
     inkscape:deskcolor="#d1d1d1"
     showgrid="false"
     inkscape:zoom="1.04625"
     inkscape:cx="400"
     inkscape:cy="400.4779"
     inkscape:window-width="1920"
     inkscape:window-height="1017"
     inkscape:window-x="-8"
     inkscape:window-y="-8"
     inkscape:window-maximized="1"
     inkscape:current-layer="g69066">
    <inkscape:page
       x="0"
       y="0"
       id="page69064"
       width="800"
       height="800" />
  </sodipodi:namedview>
  <g
     id="g69066"
     inkscape:groupmode="layer"
     inkscape:label="Page 1"
     transform="matrix(1.3333333,0,0,-1.3333333,0,800)">
    <g
       id="g69068">
      <g
         id="g69070"
         clip-path="url(#clipPath69074)">
        <g
           id="g69076"
           transform="translate(251.3145,146.9199)">
          <path
             d="M 0,0 C 31.808,-5.112 38.107,36.325 7.892,40.048 -17.809,43.213 -37.131,58.392 -46.222,81.643 -59.097,76.868 -74.261,62.899 -87.136,58.126 -81.195,35.978 -75.255,13.829 -69.314,-8.319 -41.051,-6.455 -28.264,-1.864 0,0"
             style="fill:#98511d;fill-opacity:1;fill-rule:evenodd;stroke:none"
             id="path69078" />
        </g>
        <g
           id="g69080"
           transform="translate(258.6807,187.0371)">
          <path
             d="M 0,0 C -25.437,3.307 -44.559,18.434 -53.588,41.525 -66.463,36.751 -81.628,22.782 -94.502,18.009 l 10.457,-38.992 c 0.361,0.488 0.707,0.99 1.036,1.502 7.504,-6.334 18.059,-8.559 27.839,-5.095 7.658,2.711 13.589,8.484 16.645,15.627 7.116,-4.27 15.973,-5.357 24.146,-2.462 C -8.255,-9.242 -3.302,-5.136 0,0"
             style="fill:#8f4a1c;fill-opacity:1;fill-rule:evenodd;stroke:none"
             id="path69082" />
        </g>
        <g
           id="g69084"
           transform="translate(253.417,99.6563)">
          <path
             d="m 0,0 c -67.339,12.39 -124.488,53.883 -157.923,110.952 l 0.151,0.861 c 19.683,-5.1 48.851,-1.326 68.534,-6.423 C -60.01,68.845 -36.259,51.659 13.375,44.536 22.199,43.271 29.705,32.471 29.705,24.741 29.705,17.012 26.587,10.358 20.646,5.412 14.708,0.467 7.601,-1.397 0,0"
             style="fill:#81351a;fill-opacity:1;fill-rule:evenodd;stroke:none"
             id="path69086" />
        </g>
        <g
           id="g69088"
           transform="translate(136.8447,158.7549)">
          <path
             d="m 0,0 c -3.143,2.958 -6.204,6.001 -9.178,9.128 -0.24,0.386 -0.472,0.776 -0.694,1.177 l -0.241,-0.193 c -11.903,12.66 -22.399,26.656 -31.238,41.742 l 0.152,0.86 c 19.682,-5.1 48.85,-1.325 68.533,-6.423 C 41.729,28.293 54.797,14.992 70.28,5.276 69.126,4.676 67.92,4.149 66.666,3.706 56.886,0.242 46.331,2.467 38.827,8.801 35.482,3.597 30.467,-0.471 24.413,-2.615 15.98,-5.603 7.07,-4.36 0,0"
             style="fill:#7b3319;fill-opacity:1;fill-rule:evenodd;stroke:none"
             id="path69090" />
        </g>
        <g
           id="g69092"
           transform="translate(122.6196,173.373)">
          <path
             d="m 0,0 c -36.551,40.97 -58.776,94.997 -58.776,154.223 0,15.483 1.518,30.612 4.414,45.245 l 86.984,54.271 127.881,-66.443 V 45.729 c 0,-6.319 -3.517,-11.722 -9.297,-14.278 -5.78,-2.557 -12.144,-1.524 -16.82,2.727 -0.205,0.184 -0.405,0.375 -0.603,0.567 C 136.745,23.616 130.699,11.896 119.653,7.983 109.876,4.521 99.297,8.275 93.732,16.473 93.99,7.055 88.223,-1.867 78.862,-5.182 67.974,-9.037 56.088,-3.941 51.244,6.274 50.066,-1.635 44.67,-8.647 36.607,-11.504 24.984,-15.619 12.225,-9.533 8.107,2.09 7.352,4.225 6.941,6.396 6.844,8.547 5.324,5.217 2.992,2.261 0,0"
             style="fill:#b27240;fill-opacity:1;fill-rule:evenodd;stroke:none"
             id="path69094" />
        </g>
        <g
           id="g69096"
           transform="translate(76.8574,250.8545)">
          <path
             d="m 0,0 c -8.429,24.018 -13.014,49.842 -13.014,76.741 0,15.484 1.518,30.613 4.414,45.246 l 86.984,54.271 127.881,-66.443 V 6.204 c -4.01,-3.252 -8.83,-5.399 -14.022,-6.192 -7.054,-1.076 -14.122,0.479 -19.97,4.133 -0.956,-2.743 -2.323,-5.346 -4.072,-7.725 -4.616,-6.276 -11.483,-10.432 -19.186,-11.608 -9.25,-1.414 -18.36,1.687 -24.79,7.887 -4.428,-7.114 -11.815,-12.178 -20.471,-13.501 -10.967,-1.673 -21.576,2.986 -27.887,11.394 -4.466,-5.052 -10.622,-8.505 -17.536,-9.56 C 43.616,-21.216 29.785,-12.099 25.756,1.825 22.612,-0.003 19.122,-1.247 15.438,-1.81 10.168,-2.614 4.85,-1.971 0,0"
             style="fill:#ac6b3a;fill-opacity:1;fill-rule:evenodd;stroke:none"
             id="path69098" />
        </g>
        <g
           id="g69100"
           transform="translate(74.3354,258.4971)">
          <path
             d="m 0,0 c -6.808,21.824 -10.492,45.03 -10.492,69.099 0,24.698 3.864,48.494 11.018,70.816 16.163,50.424 65.741,81.01 118.058,72.833 52.32,-8.177 90.203,-52.439 90.203,-105.395 V 6.373 c -3.592,-4.428 -8.78,-7.585 -14.861,-8.514 -9.27,-1.416 -18.104,2.732 -23.114,9.948 0.871,-12.224 -7.787,-23.266 -20.114,-25.149 -10.908,-1.666 -21.215,4.372 -25.395,14.048 -1.611,-9.895 -9.42,-18.065 -19.866,-19.66 -12.15,-1.856 -23.554,5.845 -26.576,17.488 -2.81,-8.03 -9.851,-14.283 -18.846,-15.656 -12.973,-1.98 -25.092,6.929 -27.073,19.899 -0.364,2.382 -0.359,4.735 -0.03,7 C 29.316,0.709 23.75,-2.95 17.122,-3.962 10.87,-4.916 4.817,-3.341 0,0"
             style="fill:#cb9262;fill-opacity:1;fill-rule:evenodd;stroke:none"
             id="path69102" />
        </g>
        <g
           id="g69104"
           transform="translate(64.6606,347.1973)">
          <path
             d="m 0,0 c 1.483,17.713 4.958,34.86 10.201,51.215 16.163,50.424 65.74,81.01 118.058,72.833 52.32,-8.177 90.203,-52.44 90.203,-105.395 v -47.46 c -5.362,-4.937 -12.436,-7.769 -19.924,-7.769 -7.129,0 -13.855,2.57 -19.083,7.023 -4.986,-9.284 -14.793,-15.524 -25.945,-15.524 -9.344,0 -17.873,4.409 -23.319,11.469 -5.472,-6.324 -13.528,-10.185 -22.27,-10.185 -11.088,0 -20.872,6.176 -25.882,15.408 -5.182,-4.281 -11.771,-6.74 -18.745,-6.74 -14.893,0 -27.204,11.068 -29.156,25.427 -3.359,-1.304 -6.963,-1.991 -10.654,-1.991 C 14.081,-11.689 5.457,-7.218 0,0"
             style="fill:#c98f5c;fill-opacity:1;fill-rule:evenodd;stroke:none"
             id="path69106" />
        </g>
        <g
           id="g69108"
           transform="translate(65.7061,357.1177)">
          <path
             d="m 0,0 c 1.806,14.207 4.897,28.011 9.156,41.294 16.162,50.425 65.74,81.01 118.057,72.833 52.32,-8.176 90.203,-52.439 90.203,-105.395 v -38.744 c -4.237,-6.511 -11.577,-10.816 -19.924,-10.816 -9.378,0 -17.484,5.434 -21.348,13.324 -0.984,-12.217 -11.209,-21.825 -23.679,-21.825 -11.035,0 -20.312,7.525 -22.983,17.721 -3.087,-9.538 -12.04,-16.436 -22.607,-16.436 -12.291,0 -22.401,9.334 -23.63,21.299 -3.991,-7.513 -11.895,-12.631 -20.996,-12.631 -13.12,0 -23.757,10.636 -23.757,23.757 0,2.409 0.36,4.733 1.026,6.925 -4.319,-4.467 -10.375,-7.245 -17.08,-7.245 C 12.057,-15.939 3.232,-9.28 0,0"
             style="fill:#e6b489;fill-opacity:1;fill-rule:evenodd;stroke:none"
             id="path69110" />
        </g>
        <g
           id="g69112"
           transform="translate(83.9893,419.1704)">
          <path
             d="m 0,0 c 21.578,37.769 64.253,59.057 108.93,52.075 44.104,-6.892 77.949,-39.429 87.49,-81.199 -4.097,-8.245 -12.609,-13.783 -22.243,-13.783 -6.15,0 -11.944,2.267 -16.396,6.182 -4.146,-8.023 -12.526,-13.444 -22.071,-13.444 -8.021,0 -15.327,3.848 -19.909,9.986 -4.619,-5.511 -11.531,-8.89 -19.04,-8.89 -9.49,0 -17.848,5.363 -22.017,13.339 -4.415,-3.764 -10.092,-5.933 -16.108,-5.933 -12.702,0 -23.18,9.543 -24.651,21.85 -2.939,-1.196 -6.109,-1.828 -9.36,-1.828 C 11.994,-21.645 1.563,-12.206 0,0"
             style="fill:#e1ad7e;fill-opacity:1;fill-rule:evenodd;stroke:none"
             id="path69114" />
        </g>
        <g
           id="g69116"
           transform="translate(88.8174,426.8496)">
          <path
             d="m 0,0 c 22.727,32.929 62.549,50.89 104.102,44.396 41.237,-6.445 73.499,-35.309 85.319,-73.175 -1.458,-9.777 -9.888,-17.277 -20.072,-17.277 -8.012,0 -14.938,4.642 -18.239,11.383 -0.84,-10.436 -9.575,-18.646 -20.228,-18.646 -9.428,0 -17.354,6.429 -19.636,15.141 -2.636,-8.149 -10.286,-14.043 -19.313,-14.043 -10.5,0 -19.138,7.974 -20.189,18.197 -3.409,-6.419 -10.162,-10.791 -17.936,-10.791 -11.21,0 -20.297,9.087 -20.297,20.297 0,2.057 0.307,4.043 0.877,5.915 -3.69,-3.816 -8.864,-6.19 -14.591,-6.19 -11.21,0 -20.297,9.087 -20.297,20.297 0,1.545 0.173,3.05 0.5,4.496"
             style="fill:#fcd6b4;fill-opacity:1;fill-rule:evenodd;stroke:none"
             id="path69118" />
        </g>
        <g
           id="g69120"
           transform="translate(357.2861,146.9199)">
          <path
             d="M 0,0 C -31.808,-5.112 -38.107,36.325 -7.892,40.048 17.809,43.213 37.131,58.392 46.222,81.643 59.097,76.868 74.261,62.899 87.138,58.126 81.196,35.978 75.257,13.829 69.316,-8.319 41.052,-6.455 28.264,-1.864 0,0"
             style="fill:#98511d;fill-opacity:1;fill-rule:evenodd;stroke:none"
             id="path69122" />
        </g>
        <g
           id="g69124"
           transform="translate(349.9209,187.0371)">
          <path
             d="M 0,0 C 25.437,3.307 44.559,18.434 53.587,41.525 66.462,36.751 81.626,22.782 94.503,18.009 L 84.044,-20.983 c -0.361,0.488 -0.706,0.99 -1.036,1.502 -7.502,-6.334 -18.058,-8.559 -27.838,-5.095 -7.658,2.711 -13.59,8.484 -16.645,15.627 -7.116,-4.27 -15.974,-5.357 -24.147,-2.462 C 8.254,-9.242 3.301,-5.136 0,0"
             style="fill:#8f4a1c;fill-opacity:1;fill-rule:evenodd;stroke:none"
             id="path69126" />
        </g>
        <g
           id="g69128"
           transform="translate(355.1846,99.6563)">
          <path
             d="m 0,0 c 67.339,12.39 124.487,53.883 157.923,110.952 l -0.153,0.861 c -19.682,-5.1 -48.849,-1.326 -68.531,-6.423 C 60.009,68.845 36.258,51.659 -13.374,44.536 -22.2,43.271 -29.706,32.471 -29.706,24.741 c 0,-7.729 3.118,-14.383 9.059,-19.329 C -14.709,0.467 -7.601,-1.397 0,0"
             style="fill:#81351a;fill-opacity:1;fill-rule:evenodd;stroke:none"
             id="path69130" />
        </g>
        <g
           id="g69132"
           transform="translate(471.7559,158.7549)">
          <path
             d="m 0,0 c 3.143,2.958 6.204,6.001 9.179,9.128 0.239,0.386 0.471,0.776 0.694,1.177 l 0.24,-0.193 c 11.903,12.66 22.4,26.656 31.238,41.742 l -0.152,0.86 C 21.517,47.614 -7.65,51.389 -27.332,46.291 -41.728,28.293 -54.797,14.992 -70.28,5.276 c 1.154,-0.6 2.361,-1.127 3.615,-1.57 9.78,-3.464 20.336,-1.239 27.838,5.095 3.345,-5.204 8.36,-9.272 14.415,-11.416 C -15.979,-5.603 -7.069,-4.36 0,0"
             style="fill:#7b3319;fill-opacity:1;fill-rule:evenodd;stroke:none"
             id="path69134" />
        </g>
        <g
           id="g69136"
           transform="translate(485.9814,173.373)">
          <path
             d="m 0,0 c 36.551,40.97 58.776,94.997 58.776,154.223 0,15.483 -1.519,30.612 -4.415,45.245 l -86.983,54.271 -127.881,-66.443 V 45.729 c 0,-6.319 3.519,-11.722 9.298,-14.278 5.779,-2.557 12.143,-1.524 16.82,2.727 0.203,0.184 0.405,0.375 0.602,0.567 -2.961,-11.129 3.084,-22.849 14.13,-26.762 9.776,-3.462 20.356,0.292 25.921,8.49 -0.258,-9.418 5.509,-18.34 14.87,-21.655 10.888,-3.855 22.774,1.241 27.617,11.456 1.178,-7.909 6.576,-14.921 14.637,-17.778 11.624,-4.115 24.383,1.971 28.501,13.594 0.755,2.135 1.166,4.306 1.262,6.457 C -5.324,5.217 -2.993,2.261 0,0"
             style="fill:#b27240;fill-opacity:1;fill-rule:evenodd;stroke:none"
             id="path69138" />
        </g>
        <g
           id="g69140"
           transform="translate(531.7441,250.8545)">
          <path
             d="m 0,0 c 8.429,24.018 13.014,49.842 13.014,76.741 0,15.484 -1.52,30.613 -4.415,45.246 l -86.984,54.271 -127.881,-66.443 V 6.204 c 4.009,-3.252 8.832,-5.399 14.023,-6.192 7.055,-1.076 14.121,0.479 19.969,4.133 0.956,-2.743 2.323,-5.346 4.072,-7.725 4.615,-6.276 11.483,-10.432 19.187,-11.608 9.25,-1.414 18.359,1.687 24.79,7.887 4.427,-7.114 11.816,-12.178 20.471,-13.501 10.966,-1.673 21.575,2.986 27.887,11.394 4.466,-5.052 10.623,-8.505 17.537,-9.56 14.714,-2.248 28.545,6.869 32.572,20.793 3.145,-1.828 6.636,-3.072 10.319,-3.635 C -10.168,-2.614 -4.85,-1.971 0,0"
             style="fill:#ac6b3a;fill-opacity:1;fill-rule:evenodd;stroke:none"
             id="path69142" />
        </g>
        <g
           id="g69144"
           transform="translate(534.2656,258.4971)">
          <path
             d="m 0,0 c 6.809,21.825 10.492,45.03 10.492,69.099 0,24.698 -3.864,48.494 -11.018,70.816 -16.164,50.424 -65.742,81.01 -118.059,72.833 -52.319,-8.177 -90.202,-52.439 -90.202,-105.395 V 6.373 c 3.592,-4.428 8.78,-7.585 14.861,-8.514 9.271,-1.416 18.105,2.732 23.115,9.948 -0.872,-12.224 7.785,-23.266 20.113,-25.149 10.909,-1.666 21.215,4.372 25.395,14.048 1.611,-9.895 9.42,-18.065 19.865,-19.66 12.15,-1.856 23.554,5.845 26.577,17.488 2.81,-8.03 9.851,-14.283 18.846,-15.656 12.972,-1.98 25.091,6.929 27.073,19.899 0.363,2.382 0.359,4.735 0.031,7 3.595,-5.068 9.162,-8.727 15.79,-9.739 C -10.871,-4.916 -4.817,-3.341 0,0"
             style="fill:#cb9262;fill-opacity:1;fill-rule:evenodd;stroke:none"
             id="path69146" />
        </g>
        <g
           id="g69148"
           transform="translate(543.9404,347.1973)">
          <path
             d="m 0,0 c -1.484,17.713 -4.959,34.86 -10.201,51.215 -16.164,50.424 -65.742,81.01 -118.059,72.833 -52.319,-8.177 -90.202,-52.44 -90.202,-105.395 v -47.46 c 5.362,-4.937 12.437,-7.769 19.924,-7.769 7.128,0 13.854,2.57 19.083,7.023 4.985,-9.284 14.794,-15.524 25.945,-15.524 9.344,0 17.873,4.409 23.321,11.469 5.469,-6.324 13.527,-10.185 22.267,-10.185 11.089,0 20.873,6.176 25.883,15.408 5.182,-4.281 11.772,-6.74 18.744,-6.74 14.894,0 27.206,11.068 29.156,25.427 3.36,-1.304 6.964,-1.991 10.655,-1.991 9.402,0 18.026,4.471 23.484,11.689"
             style="fill:#c98f5c;fill-opacity:1;fill-rule:evenodd;stroke:none"
             id="path69150" />
        </g>
        <g
           id="g69152"
           transform="translate(542.8955,357.1177)">
          <path
             d="m 0,0 c -1.807,14.207 -4.898,28.011 -9.156,41.294 -16.164,50.425 -65.742,81.01 -118.059,72.833 -52.319,-8.176 -90.202,-52.439 -90.202,-105.395 v -38.744 c 4.237,-6.511 11.578,-10.816 19.924,-10.816 9.378,0 17.485,5.434 21.347,13.324 0.985,-12.217 11.21,-21.825 23.681,-21.825 11.034,0 20.312,7.525 22.982,17.721 3.086,-9.538 12.041,-16.436 22.606,-16.436 12.291,0 22.401,9.334 23.633,21.299 3.989,-7.513 11.893,-12.631 20.994,-12.631 13.121,0 23.757,10.636 23.757,23.757 0,2.41 -0.359,4.733 -1.025,6.925 4.318,-4.467 10.373,-7.245 17.079,-7.245 10.38,0 19.206,6.659 22.439,15.939"
             style="fill:#e6b489;fill-opacity:1;fill-rule:evenodd;stroke:none"
             id="path69154" />
        </g>
        <g
           id="g69156"
           transform="translate(524.6113,419.1704)">
          <path
             d="m 0,0 c -21.577,37.769 -64.253,59.057 -108.931,52.075 -44.103,-6.892 -77.947,-39.429 -87.489,-81.199 4.097,-8.245 12.61,-13.783 22.242,-13.783 6.151,0 11.945,2.267 16.399,6.182 4.144,-8.023 12.524,-13.444 22.069,-13.444 8.02,0 15.327,3.848 19.91,9.986 4.619,-5.511 11.531,-8.89 19.038,-8.89 9.491,0 17.849,5.363 22.018,13.339 4.416,-3.764 10.093,-5.933 16.109,-5.933 12.701,0 23.178,9.543 24.65,21.85 2.939,-1.196 6.111,-1.827 9.361,-1.827 12.631,0 23.061,9.438 24.624,21.644"
             style="fill:#e1ad7e;fill-opacity:1;fill-rule:evenodd;stroke:none"
             id="path69158" />
        </g>
        <g
           id="g69160"
           transform="translate(519.7832,426.8496)">
          <path
             d="m 0,0 c -22.728,32.929 -62.549,50.89 -104.103,44.396 -41.235,-6.445 -73.498,-35.309 -85.318,-73.175 1.458,-9.777 9.889,-17.277 20.071,-17.277 8.012,0 14.939,4.642 18.24,11.383 0.84,-10.436 9.576,-18.645 20.228,-18.645 9.429,0 17.355,6.428 19.636,15.14 2.638,-8.149 10.286,-14.043 19.312,-14.043 10.502,0 19.139,7.974 20.191,18.197 3.408,-6.419 10.161,-10.791 17.936,-10.791 11.209,0 20.296,9.087 20.296,20.297 0,2.057 -0.307,4.043 -0.876,5.915 3.691,-3.816 8.862,-6.19 14.591,-6.19 11.209,0 20.296,9.087 20.296,20.297 C 0.5,-2.951 0.327,-1.446 0,0"
             style="fill:#fcd6b4;fill-opacity:1;fill-rule:evenodd;stroke:none"
             id="path69162" />
        </g>
      </g>
    </g>
  </g>
</svg>
